# AST/ASF file generated using VICON BodyLanguage
# -----------------------------------------------
:version 1.10
:name VICON
:units
  mass 1.0
  length 0.45
  angle deg
:documentation
   .ast/.asf automatically generated from VICON data using
   VICON BodyBuilder and BodyLanguage model FoxedUp or BRILLIANT.MOD
:root
   order TX TY TZ RX RY RZ
   axis XYZ
   position 0 0 0  
   orientation 0 0 0 
:bonedata
  begin
     id 1 
     name lhipjoint
     direction 0.547975 -0.797114 0.253638 
     length 2.36201 
     axis 0 0 0  XYZ
  end
  begin
     id 2 
     name lfemur
     direction 0.34202 -0.939693 0  
     length 7.69075  
     axis 0 0 20  XYZ
    dof rx ry rz
    limits (-160.0 20.0)
           (-70.0 70.0)
           (-60.0 70.0)
  end
  begin
     id 3 
     name ltibia
     direction 0.34202 -0.939693 0   
     length 7.91399   
     axis 0 0 20   XYZ
    dof rx
    limits (-10.0 170.0)
  end
  begin
     id 4 
     name lfoot
     direction 0.0705293 -0.193778 0.978507   
     length 2.13618   
     axis -90 7.62852e-016 20   XYZ
    dof rx rz
    limits (-45.0 90.0)
           (-70.0 20.0)
  end
  begin
     id 5 
     name ltoes
     direction 1.53592e-011 -4.21925e-011 1   
     length 1.07518   
     axis -90 7.62852e-016 20   XYZ
    dof rx
    limits (-90.0 20.0)
  end
  begin
     id 6 
     name rhipjoint
     direction -0.57 -0.782963 0.249136   
     length 2.4047  
     axis 0 0 0  XYZ 
  end
  begin
     id 7 
     name rfemur
     direction -0.34202 -0.939693 0   
     length 7.51486   
     axis 0 0 -20   XYZ
    dof rx ry rz
    limits (-160.0 20.0)
           (-70.0 70.0)
           (-70.0 60.0)
  end
  begin
     id 8 
     name rtibia
     direction -0.34202 -0.939693 0   
     length 8.08317   
     axis 0 0 -20   XYZ
    dof rx
    limits (-10.0 170.0)
 end
 begin
     id 9 
     name rfoot
     direction -0.104954 -0.281256 0.953876   
     length 2.30343  
     axis -90 -7.62852e-016 -20   XYZ
    dof rx rz
    limits (-45.0 90.0)
           (-20.0 70.0)
  end
  begin
     id 10 
     name rtoes
     direction -1.53556e-011 -4.21922e-011 1   
     length 1.14803   
     axis -90 -7.62852e-016 -20   XYZ
    dof rx
    limits (-90.0 20.0)
  end
  begin
     id 11 
     name lowerback
     direction -0.0152855 0.99353 -0.11254   
     length 2.05311   
     axis 0 0 0   XYZ
    dof rx ry rz
    limits (-20.0 45.0)
           (-30.0 30.0)
           (-30.0 30.0)
  end
  begin
     id 12 
     name upperback
     direction -0.00157509 0.999443 -0.033332   
     length 2.06353   
     axis 0 0 0   XYZ
    dof rx ry rz
    limits (-20.0 45.0)
           (-30.0 30.0)
           (-30.0 30.0)
  end
  begin
     id 13 
     name thorax
     direction 0.00577788 0.999804 0.0189484   
     length 2.08472   
     axis 0 0 0   XYZ
    dof rx ry rz
    limits (-20.0 45.0)
           (-30.0 30.0)
           (-30.0 30.0)
  end
  begin
     id 14 
     name lowerneck
     direction -1.09301e-005 0.994719 0.10264   
     length 1.76249   
     axis 0 0 0   XYZ
    dof rx ry rz
    limits (-20.0 45.0)
           (-30.0 30.0)
           (-30.0 30.0)
  end
  begin
     id 15 
     name upperneck
     direction 0.0495018 0.988526 -0.142706   
     length 1.77897   
     axis 0 0 0   XYZ
    dof rx ry rz
    limits (-20.0 45.0)
           (-30.0 30.0)
           (-30.0 30.0)
  end
  begin
     id 16
     name head
     direction 0.0142736 0.998114 -0.0597101  
     length 1.78934  
     axis 0 0 0   XYZ
    dof rx ry rz
    limits (-20.0 45.0)
           (-30.0 30.0)
           (-30.0 30.0)
  end
  begin
     id 17 
     name lclavicle
     direction 0.918111 0.396107 -0.0130883  
     length 3.37276  
     axis 0 0 0   XYZ
    dof ry rz
    limits (-20.0 10.0)
           (0.0 20.0)
  end
  begin
     id 18 
     name lhumerus
     direction 1 -4.48975e-011 -3.26108e-027   
     length 5.34298   
     axis 180 -30 -90   XYZ
    dof rx ry rz
    limits (-60.0 90.0)
           (-90.0 90.0)
           (-90.0 90.0)
  end
  begin
     id 19
     name lradius
     direction 1 -4.48964e-011 -8.84413e-028   
     length 3.67262   
     axis 180 -30 -90   XYZ
    dof rx
    limits (-10.0 170.0)
  end
  begin
     id 20
     name lwrist
     direction 1 -4.48991e-011 -1.24264e-027   
     length 1.83631   
     axis -2.17013e-015 90 90   XYZ
    dof ry
    limits (-180.0 0.0)
 end
  begin
     id 21 
     name lhand
     direction 1 -4.48855e-011 -2.48528e-027   
     length 0.599298   
     axis 1.58582e-015 90 90   XYZ
    dof rx rz
    limits (-90.0 90.0)
           (-45.0 45.0)
  end
  begin
     id 22 
     name lfingers
     direction 1 -4.48811e-011 -4.97056e-027   
     length 0.48317   
     axis 3.17164e-015 90 90   XYZ
    dof rx
    limits (0.0 90.0)
  end
  begin
     id 23
     name lthumb
     direction 0.707107 -6.34882e-011 0.707107   
     length 0.693738   
     axis -90 45 2.85299e-015   XYZ
    dof rx rz
    limits (-45.0 45.0)
           (-45.0 45.0)
  end
  begin
     id 24 
     name rclavicle
     direction -0.920511 0.384752 -0.0680135   
     length 3.43787  
     axis 0 0 0   XYZ 
    dof ry rz
    limits (-10.0 20.0)
           (-20.0 0.0)
  end
  begin
     id 25 
     name rhumerus
     direction -0.999976 -0.00330524 0.00603274  
     length 5.5498   
     axis 180 30 90   XYZ
    dof rx ry rz
    limits (-90.0 60.0)
           (-90.0 90.0)
           (-90.0 90.0)
  end
  begin
     id 26 
     name rradius
     direction -1 -4.48967e-011 8.62438e-027   
     length 3.69401   
     axis 180 30 90   XYZ
    dof rx
    limits (-10.0 170.0)
  end
  begin
     id 27 
     name rwrist
     direction -1 -4.4897e-011 9.54866e-027   
     length 1.84701   
     axis -7.69462e-015 -90 -90   XYZ
    dof ry
    limits (-180.0 0.0)
  end
  begin
     id 28
     name rhand
     direction -1 -4.48982e-011 1.90973e-026   
     length 0.638113   
     axis -1.21857e-014 -90 -90   XYZ
    dof rx rz
    limits (-90.0 90.0)
           (-45.0 45.0)
  end
  begin
     id 29
     name rfingers
     direction -1 -4.48936e-011 3.81946e-026   
     length 0.514463   
     axis -2.43714e-014 -90 -90   XYZ
    dof rx
    limits (0.0 90.0)
  end
  begin
     id 30
     name rthumb
     direction -0.707107 -6.34942e-011 0.707107   
     length 0.738669   
     axis -90 -45 -2.85299e-015   XYZ
    dof rx rz
    limits (-45.0 45.0)
           (-45.0 45.0)
  end
:hierarchy
  begin
    root lhipjoint rhipjoint lowerback
    lhipjoint lfemur
    lfemur ltibia
    ltibia lfoot
    lfoot ltoes
    rhipjoint rfemur
    rfemur rtibia
    rtibia rfoot
    rfoot rtoes
    lowerback upperback
    upperback thorax
    thorax lowerneck lclavicle rclavicle
    lowerneck upperneck
    upperneck head
    lclavicle lhumerus
    lhumerus lradius
    lradius lwrist
    lwrist lhand lthumb
    lhand lfingers
    rclavicle rhumerus
    rhumerus rradius
    rradius rwrist
    rwrist rhand rthumb
    rhand rfingers
  end

#!OML:ASF F:\twosubjects\two\Thursday\Session 1\Rory.ASF
:FULLY-SPECIFIED
:DEGREES
164
root 13.4605 17.8586 -11.4633 2.59742 -14.7224 4.13017
lowerback 4.07602 -0.586417 -10.4249
upperback 3.44477 -1.08379 0.757485
thorax 1.5329 -0.768906 6.68161
lowerneck -8.93962 -1.23467 -3.20813
upperneck 40.3207 -1.83689 0.903672
head 15.821 -1.26573 0.651789
rclavicle -3.25261e-014 -9.0447e-015
rhumerus -34.0271 -18.7305 -70.0718
rradius 20.882
rwrist 25.8055
rhand -15.0722 29.1739
rfingers 7.12502
rthumb 11.0952 -0.512828
lclavicle -3.25261e-014 -9.0447e-015
lhumerus -32.4372 17.895 80.4506
lradius 27.553
lwrist -26.2116
lhand -12.6335 31.6671
lfingers 7.12502
lthumb 13.4465 61.2131
rfemur -24.0834 7.7624 9.98003
rtibia 28.9608
rfoot -14.6162 -15.7813
rtoes -2.98977
lfemur -4.30328 2.89405 -24.2395
ltibia 12.573
lfoot -11.6028 5.22079
ltoes 25.277
165
root 13.4879 17.8594 -11.4948 2.56103 -14.8354 3.95616
lowerback 4.28383 -0.653139 -10.4077
upperback 3.48467 -1.19479 0.800296
thorax 1.48045 -0.823766 6.72304
lowerneck -8.77831 -1.18688 -3.2399
upperneck 40.5728 -1.74542 0.814409
head 15.9117 -1.25148 0.632942
rclavicle -7.33018e-016 1.98785e-015
rhumerus -34.0529 -18.4923 -70.3176
rradius 21.1352
rwrist 25.9395
rhand -14.5751 29.2951
rfingers 7.12502
rthumb 11.5746 -0.365317
lclavicle -7.33018e-016 1.98785e-015
lhumerus -32.4153 18.1651 80.3134
lradius 27.4788
lwrist -25.6919
lhand -13.961 31.4456
lfingers 7.12502
lthumb 12.1667 61.0718
rfemur -23.9343 7.28561 10.2589
rtibia 28.8519
rfoot -14.7263 -15.9375
rtoes 1.15916
lfemur -4.59306 2.77184 -24.139
ltibia 13.0026
lfoot -11.6697 5.5048
ltoes 25.159
166
root 13.5162 17.8664 -11.5195 2.58269 -15.0392 3.87488
lowerback 4.32787 -0.574567 -10.3588
upperback 3.52808 -1.09215 0.826493
thorax 1.48065 -0.773734 6.72128
lowerneck -8.78515 -1.30458 -3.55172
upperneck 40.9208 -1.90034 0.924865
head 16.1112 -1.35422 0.713141
rclavicle 1.84994e-014 7.05686e-015
rhumerus -34.1954 -18.4234 -70.373
rradius 21.5026
rwrist 25.9024
rhand -14.0875 29.8529
rfingers 7.12502
rthumb 12.0447 0.219557
lclavicle 1.84994e-014 7.05686e-015
lhumerus -32.175 18.547 80.1751
lradius 27.3624
lwrist -26.2652
lhand -13.6438 31.0565
lfingers 7.12502
lthumb 12.4726 60.6643
rfemur -23.9029 6.90673 10.4104
rtibia 28.857
rfoot -14.6908 -16.1268
rtoes -2.24432
lfemur -4.85925 2.6533 -24.1783
ltibia 13.2468
lfoot -11.7277 6.00476
ltoes 24.6362
167
root 13.5447 17.871 -11.5396 2.74105 -15.3259 3.86791
lowerback 4.08737 -0.511158 -10.3818
upperback 3.55708 -0.979796 0.893193
thorax 1.62673 -0.727892 6.79852
lowerneck -8.8364 -1.45381 -4.19782
upperneck 41.3974 -2.02226 1.04707
head 16.4028 -1.49532 0.864374
rclavicle -2.83268e-014 2.19657e-014
rhumerus -34.1987 -17.8826 -70.4575
rradius 22.0381
rwrist 25.7134
rhand -13.1314 29.7076
rfingers 7.12502
rthumb 12.9665 0.130533
lclavicle -2.83268e-014 2.19657e-014
lhumerus -32.0014 18.701 80.2482
lradius 27.4476
lwrist -26.2888
lhand -12.2178 31.2509
lfingers 7.12502
lthumb 13.8471 60.77
rfemur -24.0834 6.65638 10.4311
rtibia 28.978
rfoot -14.9235 -16.2782
rtoes -3.13077
lfemur -5.18363 2.479 -24.3086
ltibia 13.347
lfoot -11.8062 6.53363
ltoes 24.4861
168
root 13.5672 17.8741 -11.5602 2.7818 -15.5118 3.83345
lowerback 3.90093 -0.586805 -10.5578
upperback 3.63562 -1.0606 0.996266
thorax 1.83861 -0.78855 7.00577
lowerneck -8.70672 -1.40421 -4.4157
upperneck 41.7006 -1.81096 0.792367
head 16.5323 -1.48336 0.824353
rclavicle -2.62396e-014 1.27222e-014
rhumerus -34.0459 -17.1585 -70.6939
rradius 22.5222
rwrist 25.6284
rhand -12.4935 29.0177
rfingers 7.12502
rthumb 13.5814 -0.519339
lclavicle -2.62396e-014 1.27222e-014
lhumerus -32.1347 18.5118 80.4689
lradius 27.727
lwrist -24.9481
lhand -12.591 31.6712
lfingers 7.12502
lthumb 13.4874 61.2145
rfemur -24.1287 6.34635 10.5288
rtibia 29.2343
rfoot -15.2935 -16.3253
rtoes -2.25633
lfemur -5.32132 2.40132 -24.3545
ltibia 13.4048
lfoot -11.8201 6.83425
ltoes 24.5193
169
root 13.5857 17.8747 -11.5857 2.65875 -15.6854 4.08217
lowerback 4.00184 -0.681794 -11.123
upperback 3.61217 -1.21471 0.989611
thorax 1.80818 -0.875858 7.32481
lowerneck -8.27934 -1.21438 -4.12906
upperneck 41.7587 -1.46178 0.362995
head 16.4362 -1.35746 0.638133
rclavicle -5.54361e-014 -3.97569e-015
rhumerus -34.0558 -16.3586 -71.0936
rradius 23.0127
rwrist 25.5026
rhand -12.2533 28.36
rfingers 7.12502
rthumb 13.8129 -1.16142
lclavicle -5.54361e-014 -3.97569e-015
lhumerus -32.3722 18.7424 80.2766
lradius 27.9524
lwrist -24.1958
lhand -12.9176 31.8573
lfingers 7.12502
lthumb 13.1726 61.4212
rfemur -24.1429 6.01618 10.3339
rtibia 29.6147
rfoot -15.1507 -16.2725
rtoes -3.26229
lfemur -5.40939 2.67112 -24.6675
ltibia 13.4736
lfoot -11.7204 6.81839
ltoes 24.3867
170
root 13.6086 17.8682 -11.6155 2.67157 -15.8727 4.61128
lowerback 3.99519 -0.654234 -11.7691
upperback 3.5531 -1.19635 0.888278
thorax 1.7659 -0.87441 7.58431
lowerneck -7.70872 -1.17309 -3.73017
upperneck 41.4177 -1.30211 -0.201523
head 16.0944 -1.29931 0.34733
rclavicle 5.99087e-014 -2.98177e-016
rhumerus -34.1173 -15.781 -71.4322
rradius 23.4312
rwrist 24.6566
rhand -12.4538 28.2236
rfingers 7.12502
rthumb 13.6197 -1.31081
lclavicle 5.99087e-014 -2.98177e-016
lhumerus -32.1539 18.8057 80.2168
lradius 27.9447
lwrist -24.2608
lhand -12.2612 31.7436
lfingers 7.12502
lthumb 13.8053 61.2655
rfemur -24.4673 5.49252 9.81205
rtibia 30.0693
rfoot -14.7704 -15.9766
rtoes -5.06749
lfemur -5.7745 3.13241 -25.2934
ltibia 13.5515
lfoot -11.5647 6.55093
ltoes 24.3687
